<svg width="1428" height="1159" viewBox="0 0 1428 1159" fill="none" xmlns="http://www.w3.org/2000/svg">
<path fill-rule="evenodd" clip-rule="evenodd" d="M506.353 368.656C608.154 368.656 690.68 286.129 690.68 184.328C690.68 82.5264 608.154 0 506.353 0C404.551 0 322.025 82.5264 322.025 184.328C322.025 286.129 404.551 368.656 506.353 368.656ZM520.616 228.81C494.58 244.397 466.281 232.153 466.281 178.42C466.281 100.734 533.155 142.726 556.142 165.822C588.551 198.383 545.693 220.412 520.616 228.81ZM953.598 146.105C1034.29 195.502 1105.6 164.233 1085.21 110.12C1063.07 61.6912 1020.51 22.9954 965.198 7.60897C865.699 -20.0677 762.603 38.1559 734.926 137.655C707.249 237.154 765.473 340.251 864.972 367.928C917.814 382.626 971.67 373.097 1014.71 346.025C1051.84 311.819 1021.93 240.798 925.895 250.032C814.783 260.717 869.927 94.883 953.598 146.105ZM230.115 258.403C286.928 276.682 276.176 376.461 185.381 388.526C91.7549 400.968 180.52 557.854 240.747 463.871C293.037 382.274 369.248 408.042 372.962 460.16C367.581 510.586 341.829 558.664 297.743 591.059C214.52 652.215 97.4781 634.325 36.3226 551.102C-24.8328 467.879 -6.94334 350.837 76.2799 289.681C122.276 255.882 178.603 246.227 230.115 258.403ZM554.289 506.68C593.246 454.645 641.397 434.822 711.972 434.822C782.546 434.822 830.698 454.645 869.655 506.68C874.589 513.27 879.255 519.657 883.763 525.826C914.846 568.369 938.392 600.596 990.236 618.183C1107.11 657.828 1191.59 754.464 1153.48 918.002C1120.75 1058.5 1049.41 1108.24 929.018 1145.96C855.628 1168.96 824.053 1156.55 790.474 1143.36C768.967 1134.91 746.637 1126.14 711.972 1126.14C677.306 1126.14 654.977 1134.91 633.469 1143.36C599.89 1156.55 568.315 1168.96 494.926 1145.96C374.529 1108.24 303.194 1058.5 270.459 918.002C232.356 754.464 316.836 657.828 433.707 618.183C485.552 600.596 509.098 568.369 540.181 525.826L540.184 525.822L540.213 525.783L540.239 525.747C544.729 519.602 549.376 513.242 554.289 506.68ZM1362.15 299.585C1440.14 365.021 1450.31 481.287 1384.87 559.271C1319.43 637.256 1203.17 647.428 1125.18 581.991C1047.2 516.554 1037.03 400.289 1102.46 322.304C1167.9 244.32 1284.17 234.148 1362.15 299.585ZM1203.04 461.6C1237.77 490.741 1289.07 507.592 1293.87 477.628C1294.29 474.957 1294.77 472.235 1295.25 469.484C1300.17 441.366 1305.62 410.164 1265.31 398.937C1221.74 386.8 1168.31 432.459 1203.04 461.6Z" fill="#07500A"/>
</svg>
