<svg width="889" height="771" viewBox="0 0 889 771" fill="none" xmlns="http://www.w3.org/2000/svg">
<path d="M63.3273 493.5L347.961 0.499619L474.978 0.499623L126.836 603.5L63.3273 493.5Z" fill="#282828"/>
<path d="M190.344 713.5L601.995 0.499268L667.812 0.499269L698.412 53.5L284.453 770.499H223.253L190.344 713.5Z" fill="#282828"/>
<path d="M411.47 770.499L761.921 163.5L825.43 273.5L538.487 770.499L411.47 770.499Z" fill="#282828"/>
<path d="M347.961 0.499619L63.3273 493.5L0.973633 385.5L223.253 0.499728L347.961 0.499619Z" fill="#C71E1E"/>
<path d="M126.836 603.5L474.978 0.499623L601.995 0.499268L190.344 713.5L126.836 603.5Z" fill="#C71E1E"/>
<path d="M284.453 770.499L698.412 53.5L761.921 163.5L411.47 770.499L284.453 770.499Z" fill="#C71E1E"/>
<path d="M665.504 770.499L538.487 770.499L825.43 273.5L888.938 383.5L665.504 770.499Z" fill="#C71E1E"/>
<path d="M749.834 386C749.834 554.447 613.281 691 444.834 691C276.387 691 139.834 554.447 139.834 386C139.834 217.553 276.387 81.0001 444.834 81.0001C613.281 81.0001 749.834 217.553 749.834 386Z" fill="#FF2626"/>
</svg>
