<svg width="889" height="771" viewBox="0 0 889 771" fill="none" xmlns="http://www.w3.org/2000/svg">
<path d="M62.4932 493.06L347.127 0.0595556L474.144 0.0595591L126.002 603.06L62.4932 493.06Z" fill="#282828"/>
<path d="M189.51 713.06L601.161 0.0593262L666.979 0.0593271L697.578 53.0598L283.619 770.059H222.419L189.51 713.06Z" fill="#282828"/>
<path d="M537.653 770.059L410.636 770.059L761.087 163.06L824.595 273.06L537.653 770.059Z" fill="#282828"/>
<path d="M347.127 0.0595556L62.4932 493.06L0.139648 385.06L222.419 0.059617L347.127 0.0595556Z" fill="#C71E1E"/>
<path d="M126.002 603.06L474.144 0.0595591L601.161 0.0593262L189.51 713.06L126.002 603.06Z" fill="#C71E1E"/>
<path d="M283.619 770.059L697.578 53.0598L761.087 163.06L410.636 770.059L283.619 770.059Z" fill="#C71E1E"/>
<path d="M664.67 770.059L537.653 770.059L824.595 273.06L888.104 383.06L664.67 770.059Z" fill="#C71E1E"/>
<path d="M444.834 690.449C613.281 690.449 749.834 553.896 749.834 385.449L749.834 310.52H139.834V385.449C139.834 553.896 276.387 690.449 444.834 690.449Z" fill="#A61919"/>
<path d="M444.834 5.99997C276.387 5.99997 139.834 142.553 139.834 311C139.834 479.447 276.387 616 444.834 616C613.281 616 749.834 479.447 749.834 311C749.834 142.553 613.281 5.99997 444.834 5.99997Z" fill="#FF2626"/>
</svg>
