<svg width="252" height="346" viewBox="0 0 252 346" fill="none" xmlns="http://www.w3.org/2000/svg">
    <path d="M10 336H242V124L126 10H10V336Z" stroke="white" stroke-width="20"/>
    <path d="M126 10V124H242" stroke="white" stroke-width="20"/>
    <path d="M122.421 212.103H105.375C105.66 210.429 105.656 208.919 105.363 207.571C105.071 206.224 104.491 205.072 103.624 204.116C102.758 203.159 101.605 202.431 100.167 201.931C98.7584 201.41 97.0995 201.149 95.1904 201.149C91.804 201.149 88.641 201.942 85.7014 203.529C82.7845 205.115 80.2085 207.408 77.9733 210.408C75.7609 213.407 74.0035 217.037 72.7011 221.297C71.3456 225.73 70.8684 229.447 71.2696 232.446C71.7002 235.424 72.8874 237.673 74.8314 239.195C76.8047 240.694 79.4505 241.444 82.7686 241.444C84.6323 241.444 86.3952 241.216 88.0575 240.76C89.7425 240.303 91.2974 239.64 92.7223 238.771C94.1766 237.88 95.4714 236.804 96.6068 235.543C97.7716 234.261 98.7475 232.816 99.5347 231.207L116.55 231.305C115.351 234.261 113.563 237.173 111.186 240.042C108.831 242.911 105.997 245.53 102.681 247.899C99.3729 250.247 95.6424 252.116 91.4899 253.507C87.36 254.898 82.8974 255.593 78.102 255.593C71.7838 255.593 66.53 254.267 62.3407 251.616C58.1807 248.942 55.4383 245.052 54.1135 239.945C52.7887 234.837 53.2459 228.621 55.4852 221.297C57.7311 213.95 61.1008 207.724 65.5941 202.616C70.0875 197.508 75.2395 193.629 81.0502 190.977C86.8608 188.326 92.8684 187 99.073 187C103.3 187 107.037 187.565 110.282 188.695C113.534 189.804 116.195 191.434 118.264 193.585C120.34 195.715 121.755 198.334 122.51 201.442C123.264 204.55 123.234 208.104 122.421 212.103Z" fill="white"/>
    <path d="M155.325 187.913L155.988 236.815H156.568L187.132 187.913H206.018L162.049 254.68H139.583L136.439 187.913H155.325Z" fill="white"/>
</svg>

