<svg width="270" height="270" viewBox="0 0 270 270" fill="none" xmlns="http://www.w3.org/2000/svg">
<path fill-rule="evenodd" clip-rule="evenodd" d="M180.689 180.688C217.398 143.979 217.398 84.4615 180.689 47.7522C143.979 11.0429 84.4619 11.0429 47.7527 47.7522C11.0434 84.4615 11.0434 143.979 47.7527 180.688C84.4619 217.398 143.979 217.398 180.689 180.688ZM194.831 194.83C239.351 150.311 239.351 78.1298 194.831 33.61C150.311 -10.9097 78.1303 -10.9097 33.6105 33.61C-10.9092 78.1298 -10.9092 150.311 33.6105 194.83C78.1303 239.35 150.311 239.35 194.831 194.83Z" fill="white"/>
<path fill-rule="evenodd" clip-rule="evenodd" d="M254.935 269.077L184.224 198.366L198.366 184.224L269.077 254.934L254.935 269.077Z" fill="white"/>
<path d="M83.1339 63.1126C88.9917 68.9704 86.4591 81.0006 77.477 89.9826C68.495 98.9647 56.4648 101.497 50.607 95.6395C44.7491 89.7816 47.2818 77.7515 56.2638 68.7694C65.2459 59.7874 77.276 57.2547 83.1339 63.1126Z" fill="white"/>
<path d="M103.64 42.6063C107.155 46.121 107.155 51.8195 103.64 55.3342C100.125 58.8489 94.4266 58.8489 90.9119 55.3342C87.3972 51.8195 87.3972 46.121 90.9119 42.6063C94.4266 39.0916 100.125 39.0916 103.64 42.6063Z" fill="white"/>
</svg>
