<svg viewBox="0 0 103 67" xmlns="http://www.w3.org/2000/svg">
    <path d="M25.8833 5.1748H17.8833L0.925781 60.6405H36.9258L39.2648 52.99H11.2648L25.8833 5.1748Z"/>
    <path d="M51.3284 33.4706C54.7193 22.3794 66.8702 13.3882 78.4682 13.3882C84.4068 13.3882 89.0448 15.7406 91.7095 19.5342L93.6438 22.2881L101.027 16.9783L99.0922 14.2244C95.4205 8.99701 89.0066 5.73779 80.8072 5.73779C64.7909 5.73779 48.0111 18.1542 43.3284 33.4706C38.6457 48.7871 47.8334 61.2035 63.8496 61.2035C72.0491 61.2035 80.4558 57.9443 87.3239 52.7169L90.9421 49.963L86.8061 44.6532L83.1879 47.407C78.2036 51.2007 72.1272 53.553 66.1886 53.553C54.5906 53.553 47.9375 44.5618 51.3284 33.4706Z"/>
    <path id="crosshair" style="transition: fill 250ms" fill-rule="evenodd" clip-rule="evenodd" d="M79.9251 18.4383L85.5623 0H79.5623L73.9251 18.4383C67.1376 19.6049 60.5872 24.4519 57.4872 30.6018H38.2064L36.4521 36.3396H55.7329C55.0726 42.4894 58.6592 47.3364 64.7334 48.503L59.0963 66.9413H65.0963L70.7334 48.503C77.5209 47.3364 84.0713 42.4894 87.1714 36.3396H100.952L102.706 30.6018H88.9256C89.5859 24.4519 85.9993 19.6049 79.9251 18.4383ZM72.1191 24.3454C68.7235 25.2795 65.5503 27.6276 63.6642 30.6018H70.2064L72.1191 24.3454ZM76.2064 30.6018L78.1191 24.3454C80.9436 25.2795 82.6811 27.6276 82.7486 30.6018H76.2064ZM68.4521 36.3396H61.91C61.9775 39.3138 63.7149 41.6618 66.5394 42.5959L68.4521 36.3396ZM72.5394 42.5959L74.4521 36.3396H80.9943C79.1082 39.3138 75.9351 41.6618 72.5394 42.5959Z"/>
</svg>     
