<svg width="150" height="150" viewBox="0 0 150 150" fill="none" xmlns="http://www.w3.org/2000/svg">
<circle cx="74.731" cy="74.731" r="74.731" fill="url(#paint0_linear_306_29)"/>
<g filter="url(#filter0_i_306_29)">
<path d="M90.3789 27.7228L92.2764 32.5158L97.7393 45.4767C98.8135 47.8937 99.3691 50.5096 99.3691 53.1545V64.0002H96.9297V78.6349H105.467V64.0002H103.027V53.1545C103.027 49.9976 102.365 46.8752 101.083 43.9904L97.0107 34.8273L112.157 34.6291L133.176 50.7062L119.28 52.4553L116.26 59.5519L129.796 72.7375L133.291 98.9689L122.229 90.3791L115.074 93.2619L115.323 112.157L99.2451 133.176L97.4971 119.28L90.3994 116.26L77.2148 129.796L50.9834 133.291L59.5732 122.23L56.6895 115.074L37.7949 115.323L16.7754 99.2463L30.6719 97.4973L33.6914 90.3996L20.1562 77.215L16.6611 50.9836L27.7227 59.5734L34.877 56.6896L34.6289 37.7951L50.707 16.7766L52.4551 30.6721L59.5518 33.6916L72.7373 20.1564L98.9688 16.6613L90.3789 27.7228ZM74.9766 70.0978C72.2824 70.0979 70.0986 72.2825 70.0986 74.9767C70.0989 77.6708 72.2825 79.8546 74.9766 79.8547C77.6707 79.8547 79.8552 77.6708 79.8555 74.9767C79.8555 72.2825 77.6708 70.0978 74.9766 70.0978Z" fill="url(#paint1_linear_306_29)"/>
</g>
<defs>
<filter id="filter0_i_306_29" x="16.6611" y="16.6613" width="116.63" height="116.63" filterUnits="userSpaceOnUse" color-interpolation-filters="sRGB">
<feFlood flood-opacity="0" result="BackgroundImageFix"/>
<feBlend mode="normal" in="SourceGraphic" in2="BackgroundImageFix" result="shape"/>
<feColorMatrix in="SourceAlpha" type="matrix" values="0 0 0 0 0 0 0 0 0 0 0 0 0 0 0 0 0 0 127 0" result="hardAlpha"/>
<feOffset/>
<feGaussianBlur stdDeviation="4.1"/>
<feComposite in2="hardAlpha" operator="arithmetic" k2="-1" k3="1"/>
<feColorMatrix type="matrix" values="0 0 0 0 0 0 0 0 0 0 0 0 0 0 0 0 0 0 0.18 0"/>
<feBlend mode="normal" in2="shape" result="effect1_innerShadow_306_29"/>
</filter>
<linearGradient id="paint0_linear_306_29" x1="74.731" y1="0" x2="74.731" y2="149.462" gradientUnits="userSpaceOnUse">
<stop offset="0.259615" stop-color="#BE3923"/>
<stop offset="1" stop-color="#652304"/>
</linearGradient>
<linearGradient id="paint1_linear_306_29" x1="74.976" y1="16.6613" x2="74.976" y2="133.291" gradientUnits="userSpaceOnUse">
<stop stop-color="#CFCFCF"/>
<stop offset="0.653846" stop-color="white"/>
</linearGradient>
</defs>
</svg>
